<svg viewBox="0 0 96 35" fill="none" xmlns="http://www.w3.org/2000/svg">
  <path
    d="M60.0172 9.81908C58.3823 10.2283 57.0324 10.4475 55.6525 10.9298C54.5576 11.2075 53.4477 11.4998 52.1728 11.8213L52.0828 11.8359C51.4528 12.0113 51.3928 12.0259 50.8079 11.3682C50.1029 10.5937 49.593 10.0968 48.618 9.62909C45.6632 8.22609 42.8135 8.6353 40.1587 10.316C36.9789 12.3182 35.344 15.2849 35.389 18.9678C35.434 22.6214 37.9988 25.6174 41.5686 26.1143C44.8683 26.5235 47.5381 25.4421 49.6379 23.1183C49.9529 22.7384 50.2379 22.3438 50.5529 21.9053C50.6729 21.7592 50.7779 21.5984 50.8979 21.4231H41.8835C40.9086 21.4231 40.6686 20.8385 40.9986 20.0639C41.5985 18.6463 42.7235 16.2787 43.3834 15.0949C43.5184 14.8319 43.8484 14.2473 44.4183 14.2473H59.5822C60.2572 12.2889 61.3521 10.316 62.822 8.44531C66.2267 4.07555 70.2164 1.79567 75.901 0.845727C80.6706 0.0273106 85.1553 0.480364 89.235 3.16945C92.9247 5.6247 95.2045 8.95682 95.8195 13.3266C96.6144 19.4793 94.7846 24.4775 90.3149 28.7596C87.3601 31.814 83.5804 33.7285 79.2307 34.5908C78.3908 34.7369 77.5659 34.81 76.7559 34.8831C76.321 34.9123 75.901 34.9562 75.481 35C71.2363 34.9123 67.3516 33.7285 64.0819 30.9956C61.787 29.0519 60.1972 26.6697 59.4172 23.9075C58.8623 24.9744 58.2173 26.012 57.3174 26.9912C54.0776 31.3171 49.6829 34.0062 44.1334 34.7223C39.5437 35.3215 35.299 34.4593 31.5493 31.7263C28.0996 29.1688 26.1347 25.8074 25.6248 21.613C25.0098 16.6441 26.5097 12.0551 29.5845 8.26993C32.9142 4.03171 37.3089 1.34262 42.6785 0.392676C47.0731 -0.513427 51.2728 0.115 55.0675 2.62871C57.5424 4.2217 59.3122 6.39927 60.4821 9.04451C60.7671 9.45372 60.5721 9.68755 60.0172 9.81908ZM7.25112 10.6375C7.05614 10.6375 7.01114 10.5498 7.11613 10.4037L8.10606 9.17604C8.19605 9.04451 8.43604 8.95682 8.61602 8.95682H25.3098C25.4898 8.95682 25.5348 9.08835 25.4448 9.21988L24.6498 10.4037C24.5598 10.5498 24.3198 10.6813 24.1849 10.6813L7.26612 10.6375H7.25112ZM0.186653 14.8319C0.00666616 14.8319 -0.0533293 14.7296 0.0516628 14.598L1.02659 13.3704C1.11658 13.2389 1.35656 13.1366 1.53655 13.1366H22.85C23.0299 13.1366 23.1199 13.2827 23.0749 13.4143L22.7 14.5104C22.655 14.6857 22.475 14.788 22.28 14.788L0.186653 14.8319ZM11.3608 18.7486C11.2708 18.8801 11.3158 19.0117 11.4958 19.0117L21.695 19.0555C21.83 19.0555 22.025 18.924 22.025 18.7486L22.115 17.6525C22.115 17.4625 22.025 17.331 21.83 17.331H12.4857C12.3057 17.331 12.1108 17.4625 12.0208 17.6087L11.3608 18.7486ZM86.5802 16.118C86.5502 15.738 86.5352 15.4165 86.4752 15.0949C85.6353 10.5937 81.3756 8.0361 76.9359 9.04451C72.5862 9.99445 69.7814 12.6835 68.7615 16.9656C67.9216 20.517 69.6914 24.1121 73.0512 25.5736C75.631 26.6697 78.1958 26.5382 80.6706 25.2959C84.3604 23.3083 86.3702 20.517 86.6102 16.6002C86.5952 16.4249 86.5952 16.2641 86.5802 16.118Z"
    fill="currentColor" />
</svg>