<svg viewBox="0 0 55 35" fill="none" xmlns="http://www.w3.org/2000/svg">
  <path
    d="M46.005 0.314434C47.8834 0.733492 49.5901 1.68369 50.9073 3.04381C51.6315 3.78057 52.2623 4.59812 52.7862 5.47916C52.8104 5.57504 49.4033 7.78667 47.3369 9.02032C47.262 9.06933 46.9643 8.75612 46.6268 8.27459C46.25 7.64715 45.7144 7.12248 45.0702 6.7498C44.426 6.37712 43.6944 6.16865 42.9441 6.14393C40.569 5.98626 39.0385 7.18795 39.0496 9.19716C39.029 9.69078 39.1455 10.1807 39.387 10.6162C39.9096 11.6602 40.8799 12.2866 43.9276 13.5629C49.5378 15.896 51.9459 17.4343 53.4323 19.6204C54.2722 21.0017 54.7895 22.5437 54.9479 24.1384C55.1064 25.7331 54.9022 27.342 54.3497 28.8525C53.5907 30.5095 52.3861 31.9398 50.8612 32.9946C49.3363 34.0493 47.5467 34.6902 45.6786 34.8503C43.693 35.0682 41.6872 35.0481 39.7067 34.7907C36.6733 34.3093 33.879 32.9026 31.7325 30.7765C30.9219 29.8938 30.2352 28.9116 29.6904 27.8554C29.9207 27.6928 30.1615 27.5448 30.4115 27.4122C30.76 27.2204 32.0787 26.4875 33.3225 25.7908L35.5807 24.5124L36.0526 25.1771C36.8487 26.2743 37.8603 27.2096 39.0297 27.9299C40.2118 28.5564 41.5508 28.8533 42.8973 28.7874C44.2438 28.7216 45.5449 28.2956 46.6555 27.5571C47.2284 27.0176 47.5865 26.3005 47.6672 25.5316C47.7478 24.7626 47.5458 23.9907 47.0966 23.3512C46.4879 22.5095 45.2441 21.8022 41.7091 20.3214C38.9372 19.4183 36.4125 17.9215 34.3237 15.9428C33.3297 14.8471 32.5952 13.555 32.1713 12.1567C31.858 10.5634 31.8118 8.93176 32.0346 7.32431C32.449 5.47429 33.4424 3.79219 34.8799 2.50618C36.3174 1.22018 38.1296 0.392514 40.0706 0.135459C42.0468 -0.0927011 44.0473 -0.0323684 46.005 0.314434ZM27.6064 3.47421L27.6307 6.57219H17.4203V34.5861H10.2201V6.57858H0.00974212V3.536C-0.0173564 2.49404 0.0120874 1.45142 0.0979527 0.412443C0.135442 0.363438 6.34326 0.340001 13.8698 0.352785L27.5667 0.389007L27.6064 3.47421Z"
    fill="currentColor" />
</svg>