<svg width="70" height="60" viewBox="0 0 70 60" fill="none" xmlns="http://www.w3.org/2000/svg">
<g clip-path="url(#clip0_866_41)">
<path d="M53.3623 25.7215V33.7411L35.2607 41.5956L16.0127 33.578V25.8856L35.2617 17.867L53.3623 25.7215Z" fill="#D9D9D9" stroke="black" stroke-width="31"/>
<path d="M34.6875 1.80563L46.7365 6.98479L47.4771 5.4978L34.6875 0L21.9634 5.46999L22.7039 6.95697L34.6875 1.80563Z" fill="#FFC300"/>
<path d="M47.477 5.4978L46.7365 6.98479L67.6372 15.9687V43.4956L45.6177 52.96L46.3582 54.447L68.8657 44.7727L69.3749 44.554V14.9103L47.477 5.4978Z" fill="#42D2FE"/>
<path d="M1.73772 43.4956V15.9687L22.7039 6.95697L21.9634 5.46999L0 14.9103V44.554L23.0822 54.476L23.8228 52.9891L1.73772 43.4956Z" fill="#42D2FE"/>
<path d="M34.6873 57.6587L23.8226 52.9891L23.082 54.4761L34.6873 59.4643L46.3581 54.447L45.6175 52.96L34.6873 57.6587Z" fill="#FFC300"/>
<path d="M8.46289 16.5364V21.6701H17.3653V43.9129H23.9179V21.6701H30.4143C30.4143 21.6701 30.429 21.6511 30.457 21.6169C30.9115 19.475 32.295 17.6516 34.1931 16.5364H8.46289Z" fill="url(#paint0_linear_866_41)"/>
<path d="M59.7839 34.6015C59.1984 31.1079 56.2657 28.3235 52.5563 27.814L52.4387 27.7988L52.1914 27.7672L48.0369 27.2323L41.07 26.3346L40.7786 26.2966C39.6411 26.0779 38.7843 25.127 38.7843 23.9865C38.7843 22.846 39.6652 21.8698 40.8268 21.6688H50.8855C51.1461 21.1402 53.1311 17.1105 53.4199 16.5351H41.1342C40.8923 16.5149 40.649 16.5023 40.403 16.5023C35.8529 16.5023 32.1636 19.9921 32.1636 24.2963C32.1636 27.8646 34.6993 30.8701 38.1587 31.7944C38.2068 31.8071 38.2536 31.8235 38.3031 31.8336C39.0062 31.9727 39.5048 32.0145 40.2694 32.0865L43.5028 32.5025L50.4083 33.3914L50.9376 33.4597C52.1874 33.7379 53.1191 34.7975 53.1191 36.0657C53.1191 37.5161 51.9 38.6945 50.3789 38.7413H37.5705L35.0067 44.0014H51.4268V43.9989C56.112 43.9382 59.8908 40.3282 59.8908 35.8824C59.8908 35.4462 59.8534 35.0188 59.7839 34.6002V34.6015Z" fill="url(#paint1_linear_866_41)"/>
<path d="M31.1879 38.7426L28.5894 44.0027H35.0069L37.5707 38.7426H31.1879Z" fill="#FFC300"/>
<path d="M59.8199 16.5364H53.4224L50.8867 21.67H57.2802L59.8199 16.5364Z" fill="#FFC300"/>
</g>
<defs>
<linearGradient id="paint0_linear_866_41" x1="21.3273" y1="51.7815" x2="21.3273" y2="18.7808" gradientUnits="userSpaceOnUse">
<stop stop-color="#0F61E6"/>
<stop offset="0.28" stop-color="#1B7CEB"/>
<stop offset="0.87" stop-color="#3AC1FA"/>
<stop offset="1" stop-color="#42D2FE"/>
</linearGradient>
<linearGradient id="paint1_linear_866_41" x1="46.0279" y1="56.0123" x2="46.0279" y2="15.3086" gradientUnits="userSpaceOnUse">
<stop stop-color="#1A79EB"/>
<stop offset="1" stop-color="#42D2FE"/>
</linearGradient>
<clipPath id="clip0_866_41">
<rect width="69.375" height="59.4643" fill="white"/>
</clipPath>
</defs>
</svg>
